<svg width="509" height="203" viewBox="0 0 509 203" fill="none" xmlns="http://www.w3.org/2000/svg">
<path d="M254.564 201.128C309.552 201.128 354.128 156.552 354.128 101.564C354.128 46.5763 309.552 2 254.564 2C199.576 2 155 46.5763 155 101.564C155 156.552 199.576 201.128 254.564 201.128Z" stroke="#EBEEEA" stroke-width="3" stroke-miterlimit="10"/>
<path d="M268.143 102.729C272.091 99.8595 275.029 95.814 276.536 91.1723C278.043 86.5306 278.042 81.5309 276.534 76.8896C275.025 72.2484 272.086 68.2038 268.137 65.3355C264.189 62.4672 259.434 60.9224 254.554 60.9224C249.673 60.9224 244.918 62.4672 240.97 65.3355C237.022 68.2038 234.082 72.2484 232.574 76.8896C231.065 81.5309 231.064 86.5306 232.572 91.1723C234.079 95.814 237.017 99.8595 240.964 102.729C232.538 105.456 225.112 110.625 219.628 117.58C214.145 124.535 210.851 132.962 210.164 141.792C210.141 142.34 210.229 142.887 210.424 143.401C210.618 143.914 210.914 144.383 211.294 144.778C211.674 145.174 212.13 145.489 212.635 145.704C213.139 145.919 213.683 146.029 214.231 146.029H294.878C295.427 146.029 295.97 145.919 296.475 145.704C296.98 145.489 297.436 145.174 297.816 144.778C298.196 144.383 298.492 143.914 298.686 143.401C298.88 142.887 298.968 142.34 298.945 141.792C298.267 132.959 294.976 124.528 289.491 117.572C284.005 110.615 276.574 105.448 268.143 102.729V102.729ZM296.321 143.378C296.137 143.575 295.914 143.732 295.666 143.838C295.418 143.943 295.151 143.996 294.881 143.992H214.23C213.961 143.992 213.695 143.938 213.447 143.832C213.2 143.727 212.976 143.572 212.79 143.378C212.612 143.185 212.475 142.958 212.387 142.71C212.3 142.462 212.264 142.199 212.282 141.937C212.962 133.234 216.299 124.949 221.843 118.205C227.386 111.461 234.867 106.582 243.274 104.23C246.716 106.174 250.602 107.195 254.555 107.195C258.507 107.195 262.393 106.174 265.835 104.23C274.247 106.574 281.733 111.45 287.278 118.196C292.822 124.942 296.156 133.231 296.827 141.937C296.845 142.199 296.81 142.462 296.723 142.71C296.636 142.958 296.499 143.185 296.321 143.378V143.378ZM275.54 84.063C275.537 87.6558 274.609 91.1874 272.847 94.3184C271.085 97.4494 268.548 100.075 265.478 101.942C265.054 102.196 264.631 102.45 264.186 102.683C263.741 102.916 263.169 103.191 262.64 103.403C260.082 104.479 257.334 105.033 254.559 105.033C251.783 105.033 249.036 104.479 246.477 103.403C245.957 103.189 245.448 102.948 244.952 102.683L243.639 101.942C240.513 100.034 237.942 97.3401 236.18 94.1294C234.419 90.9186 233.529 87.3025 233.599 83.641C233.669 79.9794 234.697 76.4 236.58 73.259C238.463 70.118 241.136 67.5248 244.332 65.7374C247.529 63.9501 251.137 63.031 254.799 63.0715C258.461 63.1121 262.049 64.1108 265.205 65.9684C268.361 67.826 270.976 70.4777 272.789 73.6596C274.602 76.8416 275.55 80.4428 275.539 84.105L275.54 84.063Z" fill="#EBEEEA"/>
<path d="M0.216797 101.925H154.626" stroke="#EBEEEA" stroke-width="3" stroke-miterlimit="10"/>
<path d="M353.754 101.925H508.142" stroke="#EBEEEA" stroke-width="3" stroke-miterlimit="10"/>
</svg>
