<svg xmlns="http://www.w3.org/2000/svg" width="32.416" height="41.619" viewBox="0 0 32.416 41.619">
  <path id="Tracé_166" data-name="Tracé 166" d="M171.677,271.94H147a3.368,3.368,0,0,1-3.368-3.368V247.388A3.368,3.368,0,0,1,147,244.02h24.679a3.368,3.368,0,0,1,3.368,3.368v21.184A3.368,3.368,0,0,1,171.677,271.94ZM147,245.333a2.118,2.118,0,0,0-2.118,2.118v21.184A2.118,2.118,0,0,0,147,270.754h24.679a2.118,2.118,0,0,0,2.118-2.118V247.452a2.118,2.118,0,0,0-2.118-2.118Z" transform="translate(-143.13 -230.822)" fill="#fff" stroke="#fff" stroke-width="1"/>
  <path id="Tracé_167" data-name="Tracé 167" d="M165.594,251.741a.657.657,0,0,1-.636-.635v-3.686a8.569,8.569,0,0,0-17.138,0v3.686a.636.636,0,1,1-1.271,0v-3.686a9.851,9.851,0,0,1,19.68,0v3.686A.636.636,0,0,1,165.594,251.741Z" transform="translate(-139.864 -237.526)" fill="#fff" stroke="#fff" stroke-width="1"/>
  <path id="Tracé_168" data-name="Tracé 168" d="M152.573,254.637A3.241,3.241,0,1,1,155.6,253.1a3.241,3.241,0,0,1-3.024,1.535Zm0-5.084a1.864,1.864,0,1,0,1.864,1.864A1.864,1.864,0,0,0,152.573,249.553Z" transform="translate(-136.46 -226.186)" fill="#fff"/>
  <line id="Ligne_9" data-name="Ligne 9" y2="6.355" transform="translate(16.197 27.095)" fill="none" stroke="#fff" stroke-miterlimit="10" stroke-width="0.82"/>
</svg>
