<svg width="34" height="35" viewBox="0 0 34 35" fill="none" xmlns="http://www.w3.org/2000/svg">
<path d="M2.0819 33.061C1.93452 33.0612 1.78865 33.0313 1.65326 32.9731C1.51788 32.9149 1.39585 32.8296 1.29468 32.7224C1.19351 32.6152 1.11534 32.4885 1.06499 32.35C1.01464 32.2115 0.993164 32.0641 1.0019 31.917C1.32609 27.9738 3.1215 24.2967 6.03155 21.6161C8.94159 18.9355 12.7534 17.4474 16.7099 17.4474C20.6664 17.4474 24.4782 18.9355 27.3883 21.6161C30.2983 24.2967 32.0937 27.9738 32.4179 31.917C32.4268 32.0658 32.4047 32.2149 32.3532 32.3547C32.3016 32.4946 32.2216 32.6223 32.1183 32.7298C32.015 32.8372 31.8905 32.9222 31.7528 32.9792C31.615 33.0362 31.467 33.064 31.3179 33.061H2.0819Z" stroke="white" stroke-width="2" stroke-miterlimit="10"/>
<path d="M16.5788 16.972C20.9893 16.972 24.5648 13.3965 24.5648 8.986C24.5648 4.57545 20.9893 1 16.5788 1C12.1682 1 8.59277 4.57545 8.59277 8.986C8.59277 13.3965 12.1682 16.972 16.5788 16.972Z" stroke="white" stroke-width="2" stroke-miterlimit="10"/>
</svg>
