<svg width="60" height="60" viewBox="0 0 60 60" fill="none" xmlns="http://www.w3.org/2000/svg">
<path d="M50 0H10C4.47715 0 0 4.47715 0 10V50C0 55.5228 4.47715 60 10 60H50C55.5228 60 60 55.5228 60 50V10C60 4.47715 55.5228 0 50 0Z" fill="white"/>
<path d="M35.513 32.063L36.207 27.539H31.866V24.6C31.8357 24.2621 31.8819 23.9217 32.001 23.6041C32.1201 23.2864 32.3092 22.9996 32.5541 22.7649C32.7991 22.5302 33.0937 22.3536 33.4162 22.2482C33.7387 22.1428 34.0807 22.1113 34.417 22.156H36.391V18.306C35.2333 18.1189 34.0636 18.0166 32.891 18C29.311 18 26.975 20.167 26.975 24.09V27.538H23V32.062H26.975V43H31.866V32.063H35.513Z" fill="#06CC69"/>
</svg>
