<svg width="60" height="60" viewBox="0 0 60 60" fill="none" xmlns="http://www.w3.org/2000/svg">
<path d="M50 0H10C4.47715 0 0 4.47715 0 10V50C0 55.5228 4.47715 60 10 60H50C55.5228 60 60 55.5228 60 50V10C60 4.47715 55.5228 0 50 0Z" fill="white"/>
<path d="M24.75 18.5H37.25C38.0708 18.5 38.8835 18.6617 39.6418 18.9758C40.4001 19.2898 41.0891 19.7502 41.6694 20.3306C42.2498 20.9109 42.7102 21.5999 43.0242 22.3582C43.3383 23.1165 43.5 23.9292 43.5 24.75V37.25C43.5 38.0708 43.3383 38.8835 43.0242 39.6418C42.7102 40.4001 42.2498 41.0891 41.6694 41.6694C41.0891 42.2498 40.4001 42.7102 39.6418 43.0242C38.8835 43.3383 38.0708 43.5 37.25 43.5H24.75C23.0924 43.5 21.5027 42.8415 20.3306 41.6694C19.1585 40.4973 18.5 38.9076 18.5 37.25V24.75C18.5 23.0924 19.1585 21.5027 20.3306 20.3306C21.5027 19.1585 23.0924 18.5 24.75 18.5Z" stroke="#06CC69" stroke-width="3" stroke-linecap="round" stroke-linejoin="round"/>
<path d="M36 30.211C36.1546 31.2514 35.9771 32.314 35.4929 33.2477C35.0086 34.1814 34.2423 34.9386 33.3028 35.4116C32.3634 35.8846 31.2987 36.0493 30.2603 35.8823C29.2218 35.7152 28.2625 35.225 27.5187 34.4813C26.775 33.7375 26.2848 32.7782 26.1177 31.7398C25.9507 30.7013 26.1154 29.6366 26.5884 28.6972C27.0614 27.7578 27.8186 26.9914 28.7523 26.5072C29.686 26.0229 30.7486 25.8455 31.789 26C32.8497 26.1576 33.8316 26.652 34.5898 27.4102C35.348 28.1684 35.8424 29.1503 36 30.211V30.211Z" stroke="#06CC69" stroke-width="3" stroke-linecap="round" stroke-linejoin="round"/>
<path d="M37.9844 24.3369C37.9844 24.1182 38.0482 23.9359 38.1758 23.79C38.3079 23.6442 38.5039 23.5713 38.7637 23.5713C39.0234 23.5713 39.2194 23.6442 39.3516 23.79C39.4883 23.9359 39.5566 24.1182 39.5566 24.3369C39.5566 24.5465 39.4883 24.722 39.3516 24.8633C39.2194 25.0046 39.0234 25.0752 38.7637 25.0752C38.5039 25.0752 38.3079 25.0046 38.1758 24.8633C38.0482 24.722 37.9844 24.5465 37.9844 24.3369Z" fill="#06CC69"/>
</svg>
