<svg width="60" height="60" viewBox="0 0 60 60" fill="none" xmlns="http://www.w3.org/2000/svg">
<path d="M50 0H10C4.47715 0 0 4.47715 0 10V50C0 55.5228 4.47715 60 10 60H50C55.5228 60 60 55.5228 60 50V10C60 4.47715 55.5228 0 50 0Z" fill="white"/>
<path d="M22.632 40.999H17.445V24.308H22.632V40.999ZM20.032 22.032C19.4355 22.0351 18.8515 21.8613 18.3538 21.5326C17.8561 21.2039 17.467 20.735 17.2358 20.1851C17.0046 19.6353 16.9416 19.0293 17.0548 18.4437C17.168 17.858 17.4523 17.3191 17.8717 16.8951C18.2912 16.471 18.827 16.1808 19.4113 16.0612C19.9957 15.9417 20.6023 15.998 21.1547 16.2232C21.707 16.4484 22.1801 16.8323 22.5143 17.3264C22.8484 17.8204 23.0286 18.4025 23.032 18.999C23.0336 19.7982 22.7191 20.5656 22.157 21.1338C21.595 21.702 20.8311 22.0248 20.032 22.032ZM42.026 40.999H36.855V32.874C36.855 30.938 36.816 28.454 34.16 28.454C31.465 28.454 31.052 30.554 31.052 32.734V40.999H25.875V24.308H30.846V26.585H30.919C31.4151 25.7338 32.1328 25.0331 32.9957 24.5577C33.8586 24.0822 34.8344 23.8497 35.819 23.885C41.065 23.885 42.029 27.339 42.029 31.826V40.999H42.026Z" fill="#06CC69"/>
</svg>
