<svg width="60" height="60" viewBox="0 0 60 60" fill="none" xmlns="http://www.w3.org/2000/svg">
<path d="M50 0H10C4.47715 0 0 4.47715 0 10V50C0 55.5228 4.47715 60 10 60H50C55.5228 60 60 55.5228 60 50V10C60 4.47715 55.5228 0 50 0Z" fill="white"/>
<path d="M40.43 25.06C40.446 25.282 40.446 25.504 40.446 25.726C40.4593 27.6441 40.0913 29.5458 39.3634 31.3204C38.6355 33.0951 37.5622 34.7075 36.2058 36.0638C34.8495 37.4202 33.2371 38.4935 31.4625 39.2214C29.6878 39.9493 27.7861 40.3173 25.868 40.304C23.0785 40.3112 20.3464 39.5126 18 38.004C18.4108 38.0491 18.8238 38.0701 19.237 38.067C21.5436 38.0736 23.7852 37.3028 25.6 35.879C24.5308 35.8596 23.4944 35.5068 22.6355 34.8698C21.7765 34.2328 21.138 33.3435 20.809 32.326C21.1292 32.3766 21.4528 32.403 21.777 32.405C22.2319 32.4038 22.6847 32.3453 23.125 32.231C21.9646 31.9965 20.9211 31.3674 20.1721 30.4506C19.423 29.5338 19.0145 28.3859 19.016 27.202V27.139C19.726 27.5351 20.5196 27.7578 21.332 27.789C20.2442 27.0639 19.4743 25.9509 19.1793 24.6772C18.8844 23.4036 19.0867 22.0655 19.745 20.936C21.0321 22.52 22.6377 23.8158 24.4577 24.7393C26.2778 25.6629 28.2717 26.1936 30.31 26.297C30.2275 25.9097 30.1849 25.515 30.183 25.119C30.1854 24.092 30.4961 23.0893 31.0748 22.2409C31.6535 21.3924 32.4736 20.7372 33.4289 20.3602C34.3841 19.9831 35.4306 19.9015 36.4328 20.1259C37.435 20.3504 38.3468 20.8705 39.05 21.619C40.1969 21.3973 41.2966 20.978 42.3 20.38C41.9179 21.5642 41.1168 22.5684 40.047 23.204C41.0654 23.0885 42.0607 22.8212 43 22.411C42.2984 23.4323 41.4296 24.3278 40.43 25.06V25.06Z" fill="#06CC69"/>
</svg>
