<svg width="60" height="60" viewBox="0 0 60 60" fill="none" xmlns="http://www.w3.org/2000/svg">
<path d="M50 0H10C4.47715 0 0 4.47715 0 10V50C0 55.5228 4.47715 60 10 60H50C55.5228 60 60 55.5228 60 50V10C60 4.47715 55.5228 0 50 0Z" fill="white"/>
<path d="M42.4377 23.97C42.2847 23.396 41.9838 22.8723 41.5649 22.4511C41.146 22.0299 40.6239 21.7261 40.0507 21.57C37.9447 21 29.5017 21 29.5017 21C29.5017 21 21.0587 21 18.9517 21.568C18.3786 21.7241 17.8565 22.0279 17.4376 22.4491C17.0187 22.8703 16.7177 23.394 16.5647 23.968C16.1756 26.1263 15.9868 28.3159 16.0007 30.509C15.9868 32.7021 16.1756 34.8917 16.5647 37.05C16.718 37.6202 17.0197 38.1397 17.4389 38.5555C17.8582 38.9712 18.3802 39.2685 18.9517 39.417C21.0577 39.985 29.5007 39.985 29.5007 39.985C29.5007 39.985 37.9437 39.985 40.0497 39.417C40.6209 39.2688 41.1426 38.972 41.5619 38.5567C41.9811 38.1415 42.283 37.6227 42.4367 37.053C42.8259 34.8947 43.0147 32.7051 43.0007 30.512C43.0147 28.3189 42.8259 26.1293 42.4367 23.971L42.4377 23.97ZM26.7377 34.525V26.5L33.7947 30.515L26.7377 34.529V34.525Z" fill="#06CC69"/>
</svg>
