<svg id="calendar" xmlns="http://www.w3.org/2000/svg" width="26" height="23.461" viewBox="0 0 26 23.461">
    <path id="Tracé_46" data-name="Tracé 46" d="M26,32.313v-3a2.288,2.288,0,0,0-2.285-2.285h-.3v2.793a.762.762,0,0,1-1.523,0V25.762a.762.762,0,0,0-1.523,0v1.27H15.285v2.793a.762.762,0,0,1-1.523,0V25.762a.762.762,0,0,0-1.523,0v1.27H7.16v2.793a.762.762,0,0,1-1.523,0V25.762a.762.762,0,0,0-1.523,0v1.27H2.285A2.288,2.288,0,0,0,0,29.316v3Z" transform="translate(0 -25)" fill="#06cc69"/>
    <path id="Tracé_47" data-name="Tracé 47" d="M0,199v12.34a2.288,2.288,0,0,0,2.285,2.285h21.43A2.288,2.288,0,0,0,26,211.34V199Zm7.313,10.563H5.688a.762.762,0,0,1,0-1.523H7.313a.762.762,0,0,1,0,1.523Zm0-3.25H5.688a.762.762,0,0,1,0-1.523H7.313a.762.762,0,0,1,0,1.523Zm0-3.25H5.688a.762.762,0,0,1,0-1.523H7.313a.762.762,0,0,1,0,1.523Zm6.5,6.5H12.188a.762.762,0,0,1,0-1.523h1.625a.762.762,0,0,1,0,1.523Zm0-3.25H12.188a.762.762,0,0,1,0-1.523h1.625a.762.762,0,0,1,0,1.523Zm0-3.25H12.188a.762.762,0,0,1,0-1.523h1.625a.762.762,0,0,1,0,1.523Zm6.5,6.5H18.688a.762.762,0,0,1,0-1.523h1.625a.762.762,0,0,1,0,1.523Zm0-3.25H18.688a.762.762,0,0,1,0-1.523h1.625a.762.762,0,0,1,0,1.523Zm0-3.25H18.688a.762.762,0,0,1,0-1.523h1.625a.762.762,0,0,1,0,1.523Z" transform="translate(0 -190.164)" fill="#06cc69"/>
</svg>
