<svg id="linkedin" xmlns="http://www.w3.org/2000/svg" width="25.897" height="25.898" viewBox="0 0 25.897 25.898">
    <path id="linkedin-2" data-name="linkedin" d="M12.949,0A12.949,12.949,0,1,0,25.9,12.949,12.95,12.95,0,0,0,12.949,0ZM9.186,19.575H6.032V10.087H9.186ZM7.609,8.792H7.589A1.644,1.644,0,1,1,7.63,5.513a1.644,1.644,0,1,1-.021,3.278ZM20.557,19.575H17.4V14.5c0-1.276-.457-2.146-1.6-2.146a1.726,1.726,0,0,0-1.618,1.153,2.16,2.16,0,0,0-.1.77v5.3H10.931s.041-8.6,0-9.488h3.153v1.343a3.131,3.131,0,0,1,2.842-1.566c2.075,0,3.631,1.356,3.631,4.27Zm0,0" fill="#06cc69"/>
</svg>
