<svg id="work" xmlns="http://www.w3.org/2000/svg" width="27.016" height="22.513" viewBox="0 0 27.016 22.513">
    <path id="Tracé_48" data-name="Tracé 48" d="M15.88,7.065A1.126,1.126,0,0,1,14.754,5.94V4.251h-4.5V5.94A1.126,1.126,0,0,1,8,5.94V4.251A2.254,2.254,0,0,1,10.251,2h4.5a2.254,2.254,0,0,1,2.251,2.251V5.94A1.126,1.126,0,0,1,15.88,7.065Z" transform="translate(1.005 -2)" fill="#06cc69"/>
    <path id="Tracé_49" data-name="Tracé 49" d="M14.307,15.852a2.319,2.319,0,0,1-.8.135,2.467,2.467,0,0,1-.867-.158L0,11.62v8.589a3.094,3.094,0,0,0,3.1,3.1H23.92a3.094,3.094,0,0,0,3.1-3.1V11.62Z" transform="translate(0 -0.791)" fill="#06cc69"/>
    <path id="Tracé_50" data-name="Tracé 50" d="M27.016,8.1v2.578L13.778,15.086a.833.833,0,0,1-.54,0L0,10.673V8.1A3.094,3.094,0,0,1,3.1,5H23.92A3.094,3.094,0,0,1,27.016,8.1Z" transform="translate(0 -1.623)" fill="#06cc69"/>
</svg>
